<svg width="28" height="28" viewBox="0 0 28 28" fill="none" xmlns="http://www.w3.org/2000/svg">
    <path
        d="M14 28C21.732 28 28 21.732 28 14C28 6.26801 21.732 0 14 0C6.26801 0 0 6.26801 0 14C0 21.732 6.26801 28 14 28Z"
        fill="#6366F1" />
    <mask id="mask0_0_1" style="mask-type:alpha" maskUnits="userSpaceOnUse" x="0" y="0" width="28" height="28">
        <path
            d="M14 28C21.732 28 28 21.732 28 14C28 6.26801 21.732 0 14 0C6.26801 0 0 6.26801 0 14C0 21.732 6.26801 28 14 28Z"
            fill="#6366F1" />
    </mask>
    <g mask="url(#mask0_0_1)">
        <path
            d="M13.9995 36.7051C19.4574 36.7051 23.8819 32.2807 23.8819 26.8228C23.8819 21.3649 19.4574 16.9404 13.9995 16.9404C8.54164 16.9404 4.11716 21.3649 4.11716 26.8228C4.11716 32.2807 8.54164 36.7051 13.9995 36.7051Z"
            fill="white" />
        <path
            d="M14 15.7646C16.7614 15.7646 19 13.526 19 10.7646C19 8.00318 16.7614 5.7646 14 5.7646C11.2386 5.7646 9 8.00318 9 10.7646C9 13.526 11.2386 15.7646 14 15.7646Z"
            fill="white" />
    </g>
</svg>